<?xml version="1.0"?>
<svg xmlns="http://www.w3.org/2000/svg" viewBox="95 -106 190 40" width="760" height="160">
<g transform="scale(1,-1)">
<g transform="translate(125.1628,79.6224)" id="g30"><path id="path32" style="fill:#0b3845;fill-opacity:1;fill-rule:nonzero;stroke:none" d="m 0,0 c -1.696,-4.455 -6.011,-7.628 -11.054,-7.628 -6.518,0 -11.824,5.303 -11.824,11.823 v 1.907 h -0.378 c -0.131,0 -0.259,0.009 -0.384,0.031 V 4.195 c 0,-6.941 5.647,-12.586 12.586,-12.586 5.47,0 10.136,3.506 11.863,8.391 z m 1.15,22.884 h -8.043 c 0.08,-0.171 0.15,-0.348 0.208,-0.531 0.024,-0.076 0.046,-0.156 0.064,-0.232 h 7.39 V 5.34 h 0.384 c 0.129,0 0.257,-0.01 0.379,-0.028 v 17.19 c 0,0.211 -0.168,0.382 -0.382,0.382 m -24.409,0 c -0.21,0 -0.381,-0.171 -0.381,-0.382 V 11.414 c 0.122,0.019 0.253,0.028 0.384,0.028 h 0.378 v 10.679 h 7.393 c 0.019,0.076 0.04,0.152 0.064,0.229 0.062,0.186 0.129,0.363 0.211,0.534 z"></path></g><g transform="translate(114.1116,84.5806)" id="g34"><path id="path36" style="fill:#0b3845;fill-opacity:1;fill-rule:nonzero;stroke:none" d="m 0,0 c -1.26,0 -2.288,1.025 -2.288,2.288 0,1.26 1.028,2.289 2.288,2.289 1.263,0 2.288,-1.029 2.288,-2.289 C 2.288,1.025 1.263,0 0,0 m 0,5.34 c -1.684,0 -3.051,-1.367 -3.051,-3.052 0,-1.684 1.367,-3.051 3.051,-3.051 1.684,0 3.051,1.367 3.051,3.051 C 3.051,3.973 1.684,5.34 0,5.34"></path></g><g transform="translate(114.1116,97.548)" id="g38"><path id="path40" style="fill:#0b3845;fill-opacity:1;fill-rule:nonzero;stroke:none" d="m 0,0 c -1.684,0 -3.051,1.367 -3.051,3.051 0,0.406 0.079,0.791 0.223,1.144 0.113,0.278 0.262,0.534 0.448,0.763 0.558,0.699 1.419,1.144 2.38,1.144 0.961,0 1.821,-0.445 2.38,-1.144 C 2.566,4.729 2.715,4.473 2.828,4.195 2.972,3.842 3.051,3.457 3.051,3.051 3.051,1.367 1.684,0 0,0 M 3.64,4.195 C 3.555,4.464 3.442,4.72 3.301,4.958 2.642,6.096 1.41,6.865 0,6.865 -1.41,6.865 -2.642,6.096 -3.301,4.958 -3.442,4.72 -3.555,4.464 -3.64,4.195 -3.753,3.835 -3.814,3.451 -3.814,3.051 c 0,-2.102 1.712,-3.814 3.814,-3.814 2.102,0 3.814,1.712 3.814,3.814 0,0.4 -0.061,0.784 -0.174,1.144"></path></g><g transform="translate(126.4077,81.1541)" id="g42"><path id="path44" style="fill:#0b3845;fill-opacity:1;fill-rule:nonzero;stroke:none" d="m 0,0 c -0.03,-0.006 -0.061,-0.006 -0.091,-0.006 h -3.573 c -0.162,0 -0.305,-0.101 -0.36,-0.253 -1.233,-3.5 -4.559,-5.849 -8.272,-5.849 -4.58,0 -8.336,3.435 -8.739,7.991 -0.009,0.1 0.025,0.198 0.095,0.274 0.073,0.08 0.177,0.125 0.287,0.125 h 2.255 c 3.154,0 5.72,-2.566 5.72,-5.721 0,-0.21 0.171,-0.381 0.382,-0.381 0.101,0 0.198,0.04 0.268,0.113 0.074,0.07 0.113,0.168 0.113,0.268 0,1.529 0.595,2.966 1.675,4.046 1.08,1.08 2.517,1.675 4.046,1.675 h 6.103 C 0.04,2.282 0.165,2.261 0.281,2.218 0.729,2.066 1.053,1.639 1.053,1.138 1.053,0.537 0.589,0.046 0,0 m 0.287,3.005 c -0.122,0.028 -0.25,0.04 -0.378,0.04 h -6.103 c -1.733,0 -3.359,-0.674 -4.586,-1.898 -0.686,-0.686 -1.199,-1.501 -1.519,-2.389 -0.9,2.496 -3.295,4.287 -6.099,4.287 h -2.255 c -0.324,0 -0.632,-0.137 -0.848,-0.372 -0.214,-0.235 -0.321,-0.546 -0.293,-0.857 0.436,-4.953 4.518,-8.687 9.498,-8.687 3.945,0 7.487,2.441 8.897,6.102 h 3.308 c 1.049,0 1.907,0.858 1.907,1.907 0,0.925 -0.66,1.694 -1.529,1.867"></path></g><g transform="translate(122.4718,87.6714)" id="g46"><path id="path48" style="fill:#0b3845;fill-opacity:1;fill-rule:nonzero;stroke:none" d="m 0,0 c -0.22,-0.268 -0.543,-0.421 -0.888,-0.421 -0.54,0 -1.01,0.385 -1.117,0.915 -0.61,3.006 -3.283,5.187 -6.355,5.187 -3.302,0 -6.069,-2.468 -6.441,-5.745 -0.025,-0.207 -0.183,-0.357 -0.382,-0.357 h -5.382 c -0.134,0 -0.265,0.024 -0.384,0.067 -0.443,0.156 -0.76,0.58 -0.76,1.077 0,0.497 0.317,0.922 0.76,1.077 0.119,0.043 0.25,0.067 0.384,0.067 h 3.311 c 0.314,0 0.595,0.193 0.711,0.492 1.293,3.356 4.583,5.611 8.183,5.611 4.156,0 7.771,-2.951 8.595,-7.015 C 0.305,0.616 0.22,0.269 0,0 m 0.983,1.105 c -0.898,4.421 -4.827,7.627 -9.343,7.627 -3.915,0 -7.488,-2.45 -8.894,-6.102 h -3.311 c -0.131,0 -0.259,-0.012 -0.384,-0.04 -0.87,-0.176 -1.523,-0.948 -1.523,-1.867 0,-0.921 0.653,-1.69 1.523,-1.867 0.125,-0.028 0.253,-0.04 0.384,-0.04 h 5.382 c 0.583,0 1.071,0.446 1.139,1.035 0.329,2.889 2.773,5.068 5.684,5.068 2.709,0 5.068,-1.926 5.608,-4.577 0.177,-0.885 0.964,-1.526 1.864,-1.526 0.577,0 1.114,0.257 1.48,0.702 0.363,0.446 0.506,1.025 0.391,1.587"></path></g><g transform="translate(145.526,88.6367)" id="g50"><path id="path52" style="fill:#0b3845;fill-opacity:1;fill-rule:nonzero;stroke:none" d="m 0,0 c 0,-2.208 -2.227,-4.149 -6.395,-4.149 -4.359,0 -6.396,2.398 -6.396,4.872 h 2.817 c 0.038,-1.028 0.628,-2.588 3.579,-2.588 2.702,0 3.502,1.047 3.502,1.713 0,0.913 -0.704,1.503 -3.502,1.808 -4.435,0.495 -5.863,1.732 -5.863,4.092 0,2.094 2.208,3.807 5.901,3.807 4.073,0 5.729,-2.094 5.786,-4.264 h -2.76 c 0,0.876 -0.704,1.98 -3.064,1.98 -2.361,0 -2.951,-0.876 -2.951,-1.409 0,-0.513 0.286,-1.313 3.141,-1.579 C -2.512,3.921 0,3.122 0,0"></path></g><path id="path54" style="fill:#0b3845;fill-opacity:1;fill-rule:nonzero;stroke:none" d="m 149.942,84.64 h -2.893 v 13.4 h 2.893 z"></path><g transform="translate(163.0379,95.6032)" id="g56"><path id="path58" style="fill:#0b3845;fill-opacity:1;fill-rule:nonzero;stroke:none" d="m 0,0 h -8.07 v -3.122 h 6.852 V -5.406 H -8.07 V -8.527 H 0 v -2.437 h -10.964 v 13.4 L 0,2.436 Z"></path></g><g transform="translate(167.759,91.6821)" id="g60"><path id="path62" style="fill:#0b3845;fill-opacity:1;fill-rule:nonzero;stroke:none" d="M 0,0 H 3.826 C 5.405,0 6.7,0.799 6.7,1.941 6.7,3.217 5.824,3.959 4.359,3.959 H 0 Z M -2.893,-7.042 V 6.357 h 7.271 c 3.768,0 5.215,-1.789 5.215,-4.073 0,-1.561 -0.914,-3.064 -2.969,-3.483 -0.096,-0.019 -0.21,-0.076 -0.21,-0.248 0,-0.152 0.076,-0.228 0.21,-0.247 1.675,-0.19 1.998,-0.971 2.284,-1.77 l 1.294,-3.578 H 6.89 l -0.723,2.569 c -0.4,1.428 -0.762,2.151 -2.893,2.151 H 0 v -4.72 z"></path></g><g transform="translate(182.2255,91.6821)" id="g64"><path id="path66" style="fill:#0b3845;fill-opacity:1;fill-rule:nonzero;stroke:none" d="M 0,0 H 3.826 C 5.405,0 6.7,0.799 6.7,1.941 6.7,3.217 5.824,3.959 4.359,3.959 H 0 Z M -2.893,-7.042 V 6.357 h 7.271 c 3.768,0 5.215,-1.789 5.215,-4.073 0,-1.561 -0.914,-3.064 -2.969,-3.483 -0.096,-0.019 -0.21,-0.076 -0.21,-0.248 0,-0.152 0.076,-0.228 0.21,-0.247 1.675,-0.19 1.998,-0.971 2.284,-1.77 l 1.294,-3.578 H 6.89 l -0.723,2.569 c -0.4,1.428 -0.762,2.151 -2.893,2.151 H 0 v -4.72 z"></path></g><g transform="translate(197.9479,89.893)" id="g68"><path id="path70" style="fill:#0b3845;fill-opacity:1;fill-rule:nonzero;stroke:none" d="M 0,0 H 4.797 L 2.931,5.082 C 2.741,5.615 2.627,5.901 2.627,6.567 2.627,6.681 2.589,6.833 2.398,6.833 2.208,6.833 2.17,6.681 2.17,6.567 2.17,5.901 2.056,5.615 1.865,5.082 Z m 6.738,-5.253 -1.085,2.969 h -6.51 l -1.085,-2.969 h -3.273 l 5.329,13.4 h 4.568 l 5.33,-13.4 z"></path></g><g transform="translate(214.0513,98.0395)" id="g72"><path id="path74" style="fill:#0b3845;fill-opacity:1;fill-rule:nonzero;stroke:none" d="m 0,0 h 2.893 v -10.964 h 7.766 V -13.4 H 0 Z"></path></g><g transform="translate(237.3494,95.6032)" id="g76"><path id="path78" style="fill:#0b3845;fill-opacity:1;fill-rule:nonzero;stroke:none" d="m 0,0 h -8.07 v -3.122 h 6.852 V -5.406 H -8.07 V -8.527 H 0 v -2.437 h -10.964 v 13.4 L 0,2.436 Z"></path></g><g transform="translate(245.9534,98.1917)" id="g80"><path id="path82" style="fill:#0b3845;fill-opacity:1;fill-rule:nonzero;stroke:none" d="M 0,0 C 4.245,0 6.3,-2.379 6.776,-4.72 H 3.902 c -0.476,1.199 -1.561,2.284 -3.864,2.284 -3.064,0 -4.682,-1.961 -4.682,-4.416 0,-2.417 1.542,-4.416 4.587,-4.416 2.189,0 3.331,1.237 3.826,2.512 H 0.076 v 2.285 h 6.7 v -7.081 H 3.807 v 0.875 c 0,0.438 0.095,0.838 0.343,1.485 0.057,0.152 0.018,0.267 -0.096,0.305 -0.152,0.057 -0.228,-0.019 -0.285,-0.134 -0.571,-1.085 -1.999,-2.683 -4.549,-2.683 -4.188,0 -6.757,3.064 -6.757,6.852 C -7.537,-3.064 -4.892,0 0,0"></path></g><g transform="translate(258.859,89.893)" id="g84"><path id="path86" style="fill:#0b3845;fill-opacity:1;fill-rule:nonzero;stroke:none" d="M 0,0 H 4.797 L 2.931,5.082 C 2.741,5.615 2.627,5.901 2.627,6.567 2.627,6.681 2.589,6.833 2.398,6.833 2.208,6.833 2.17,6.681 2.17,6.567 2.17,5.901 2.056,5.615 1.865,5.082 Z m 6.738,-5.253 -1.085,2.969 h -6.51 l -1.085,-2.969 h -3.273 l 5.329,13.4 h 4.568 l 5.33,-13.4 z"></path></g><g transform="translate(269.7853,98.0395)" id="g88"><path id="path90" style="fill:#0b3845;fill-opacity:1;fill-rule:nonzero;stroke:none" d="m 0,0 h 2.893 v -10.964 h 7.766 V -13.4 H 0 Z"></path></g><g transform="translate(134.4761,77.4597)" id="g92"><path id="path94" style="fill:#0b3845;fill-opacity:1;fill-rule:nonzero;stroke:none" d="M 0,0 H 1.601 L 0.978,1.696 C 0.915,1.874 0.877,1.969 0.877,2.192 0.877,2.23 0.864,2.281 0.8,2.281 0.737,2.281 0.724,2.23 0.724,2.192 0.724,1.969 0.686,1.874 0.623,1.696 Z m 2.249,-1.753 -0.362,0.991 h -2.173 l -0.362,-0.991 h -1.093 l 1.779,4.472 h 1.525 l 1.778,-4.472 z"></path></g><g transform="translate(140.7614,76.4941)" id="g96"><path id="path98" style="fill:#0b3845;fill-opacity:1;fill-rule:nonzero;stroke:none" d="m 0,0 c 0.527,0 0.769,0.241 0.769,0.572 0,0.317 -0.305,0.546 -0.82,0.546 h -1.62 V 0 Z M -1.671,2.897 V 1.88 h 1.455 c 0.496,0 0.737,0.223 0.737,0.528 0,0.298 -0.21,0.489 -0.686,0.489 z M 0.743,1.556 c 0,-0.05 0.032,-0.082 0.07,-0.089 0.686,-0.139 0.921,-0.597 0.921,-1.022 0,-0.737 -0.495,-1.233 -1.41,-1.233 h -2.96 v 4.473 h 2.592 c 0.978,0 1.575,-0.356 1.575,-1.157 0,-0.4 -0.273,-0.73 -0.724,-0.883 C 0.781,1.639 0.743,1.614 0.743,1.556"></path></g><g transform="translate(146.92,77.9425)" id="g100"><path id="path102" style="fill:#0b3845;fill-opacity:1;fill-rule:nonzero;stroke:none" d="m 0,0 c 0,0.819 -0.565,1.474 -1.575,1.474 -1.011,0 -1.576,-0.655 -1.576,-1.474 0,-0.819 0.565,-1.474 1.576,-1.474 C -0.565,-1.474 0,-0.819 0,0 m 0.965,0 c 0,-1.264 -0.927,-2.287 -2.54,-2.287 -1.614,0 -2.542,1.023 -2.542,2.287 0,1.264 0.928,2.287 2.542,2.287 1.613,0 2.54,-1.023 2.54,-2.287"></path></g><g transform="translate(150.709,80.2295)" id="g104"><path id="path106" style="fill:#0b3845;fill-opacity:1;fill-rule:nonzero;stroke:none" d="m 0,0 c 1.417,0 2.103,-0.794 2.262,-1.575 h -0.96 c -0.159,0.4 -0.521,0.762 -1.289,0.762 -1.023,0 -1.563,-0.654 -1.563,-1.474 0,-0.807 0.515,-1.474 1.531,-1.474 0.731,0 1.112,0.413 1.277,0.839 H 0.026 V -2.16 H 2.262 V -4.523 H 1.271 v 0.292 c 0,0.146 0.031,0.28 0.114,0.496 0.019,0.05 0.006,0.089 -0.032,0.101 C 1.302,-3.615 1.277,-3.64 1.258,-3.678 1.067,-4.04 0.591,-4.574 -0.26,-4.574 c -1.398,0 -2.256,1.023 -2.256,2.287 C -2.516,-1.023 -1.633,0 0,0"></path></g><g transform="translate(155.0192,77.4597)" id="g108"><path id="path110" style="fill:#0b3845;fill-opacity:1;fill-rule:nonzero;stroke:none" d="M 0,0 H 1.601 L 0.978,1.696 C 0.915,1.874 0.877,1.969 0.877,2.192 0.877,2.23 0.864,2.281 0.8,2.281 0.737,2.281 0.724,2.23 0.724,2.192 0.724,1.969 0.686,1.874 0.623,1.696 Z m 2.249,-1.753 -0.362,0.991 h -2.173 l -0.362,-0.991 h -1.093 l 1.779,4.472 h 1.525 l 1.779,-4.472 z"></path></g><g transform="translate(160.9427,76.5195)" id="g112"><path id="path114" style="fill:#0b3845;fill-opacity:1;fill-rule:nonzero;stroke:none" d="M 0,0 C 0.902,0 1.334,0.699 1.334,1.423 1.334,2.147 0.902,2.846 0,2.846 H -1.309 V 0 Z M 0.006,3.659 C 1.677,3.659 2.3,2.605 2.3,1.423 2.3,0.241 1.639,-0.813 0.006,-0.813 h -2.28 v 4.472 z"></path></g><g transform="translate(167.6664,77.9425)" id="g116"><path id="path118" style="fill:#0b3845;fill-opacity:1;fill-rule:nonzero;stroke:none" d="m 0,0 c 0,0.819 -0.565,1.474 -1.576,1.474 -1.01,0 -1.575,-0.655 -1.575,-1.474 0,-0.819 0.565,-1.474 1.575,-1.474 C -0.565,-1.474 0,-0.819 0,0 m 0.966,0 c 0,-1.264 -0.928,-2.287 -2.542,-2.287 -1.613,0 -2.54,1.023 -2.54,2.287 0,1.264 0.927,2.287 2.54,2.287 1.614,0 2.542,-1.023 2.542,-2.287"></path></g><g transform="translate(173.1071,77.0405)" id="g120"><path id="path122" style="fill:#0b3845;fill-opacity:1;fill-rule:nonzero;stroke:none" d="m 0,0 c 0,-0.737 -0.743,-1.385 -2.134,-1.385 -1.455,0 -2.135,0.8 -2.135,1.626 h 0.94 c 0.013,-0.343 0.21,-0.864 1.195,-0.864 0.902,0 1.169,0.35 1.169,0.572 0,0.305 -0.236,0.502 -1.169,0.604 -1.481,0.165 -1.957,0.578 -1.957,1.365 0,0.699 0.737,1.271 1.969,1.271 1.36,0 1.913,-0.699 1.932,-1.423 h -0.922 c 0,0.292 -0.235,0.661 -1.022,0.661 -0.788,0 -0.985,-0.292 -0.985,-0.47 0,-0.172 0.095,-0.439 1.048,-0.528 C -0.838,1.309 0,1.042 0,0"></path></g><g transform="translate(174.9403,80.1787)" id="g124"><path id="path126" style="fill:#0b3845;fill-opacity:1;fill-rule:nonzero;stroke:none" d="m 0,0 h 1.092 l 1.106,-1.766 c 0.044,-0.076 0.064,-0.165 0.064,-0.28 0,-0.038 0.012,-0.089 0.076,-0.089 0.063,0 0.076,0.051 0.076,0.089 0,0.115 0.019,0.204 0.063,0.28 L 3.583,0 H 4.676 L 2.82,-2.719 V -4.472 H 1.855 v 1.753 z"></path></g><g transform="translate(183.9198,80.2295)" id="g128"><path id="path130" style="fill:#0b3845;fill-opacity:1;fill-rule:nonzero;stroke:none" d="M 0,0 C 1.563,0 2.243,-0.985 2.306,-1.728 H 1.347 c -0.064,0.407 -0.477,0.915 -1.328,0.915 -0.972,0 -1.525,-0.654 -1.525,-1.474 0,-0.819 0.553,-1.474 1.525,-1.474 0.851,0 1.264,0.508 1.328,0.915 H 2.306 C 2.243,-3.589 1.563,-4.574 0,-4.574 c -1.575,0 -2.471,1.023 -2.471,2.287 C -2.471,-1.023 -1.575,0 0,0"></path></g><g transform="translate(190.65,77.9425)" id="g132"><path id="path134" style="fill:#0b3845;fill-opacity:1;fill-rule:nonzero;stroke:none" d="m 0,0 c 0,0.819 -0.565,1.474 -1.575,1.474 -1.011,0 -1.576,-0.655 -1.576,-1.474 0,-0.819 0.565,-1.474 1.576,-1.474 C -0.565,-1.474 0,-0.819 0,0 m 0.965,0 c 0,-1.264 -0.927,-2.287 -2.54,-2.287 -1.614,0 -2.542,1.023 -2.542,2.287 0,1.264 0.928,2.287 2.542,2.287 1.613,0 2.54,-1.023 2.54,-2.287"></path></g><g transform="translate(192.0759,75.7064)" id="g136"><path id="path138" style="fill:#0b3845;fill-opacity:1;fill-rule:nonzero;stroke:none" d="M 0,0 V 4.472 H 1.677 L 3.52,0.572 C 3.532,0.54 3.558,0.508 3.602,0.521 3.666,0.54 3.659,0.591 3.64,0.642 3.577,0.813 3.507,0.966 3.507,1.169 V 4.472 H 4.472 V 0 H 2.795 L 0.953,3.901 C 0.94,3.932 0.915,3.964 0.871,3.951 0.807,3.932 0.813,3.882 0.832,3.831 0.896,3.659 0.966,3.507 0.966,3.303 V 0 Z"></path></g><g transform="translate(201.3283,77.0405)" id="g140"><path id="path142" style="fill:#0b3845;fill-opacity:1;fill-rule:nonzero;stroke:none" d="m 0,0 c 0,-0.737 -0.743,-1.385 -2.134,-1.385 -1.455,0 -2.135,0.8 -2.135,1.626 h 0.94 c 0.013,-0.343 0.21,-0.864 1.195,-0.864 0.902,0 1.169,0.35 1.169,0.572 0,0.305 -0.236,0.502 -1.169,0.604 -1.481,0.165 -1.957,0.578 -1.957,1.365 0,0.699 0.737,1.271 1.969,1.271 1.36,0 1.913,-0.699 1.932,-1.423 h -0.922 c 0,0.292 -0.235,0.661 -1.022,0.661 -0.788,0 -0.985,-0.292 -0.985,-0.47 0,-0.172 0.095,-0.439 1.048,-0.528 C -0.838,1.309 0,1.042 0,0"></path></g><g transform="translate(205.1424,80.1787)" id="g144"><path id="path146" style="fill:#0b3845;fill-opacity:1;fill-rule:nonzero;stroke:none" d="m 0,0 h 0.965 v -2.617 c 0,-1.15 -0.832,-1.906 -2.134,-1.906 -1.34,0 -2.135,0.756 -2.135,1.906 V 0 h 0.966 v -2.617 c 0,-0.731 0.521,-1.093 1.169,-1.093 0.591,0 1.169,0.369 1.169,1.093 z"></path></g><g transform="translate(206.8222,80.1787)" id="g148"><path id="path150" style="fill:#0b3845;fill-opacity:1;fill-rule:nonzero;stroke:none" d="M 0,0 H 0.966 V -3.659 H 3.558 V -4.472 L 0,-4.472 Z"></path></g><g transform="translate(210.2295,80.1787)" id="g152"><path id="path154" style="fill:#0b3845;fill-opacity:1;fill-rule:nonzero;stroke:none" d="M 0,0 H 4.066 V -0.813 H 2.515 V -4.472 H 1.55 v 3.659 H 0 Z"></path></g><g transform="translate(218.5156,77.9425)" id="g156"><path id="path158" style="fill:#0b3845;fill-opacity:1;fill-rule:nonzero;stroke:none" d="m 0,0 c 0,0.819 -0.565,1.474 -1.576,1.474 -1.01,0 -1.575,-0.655 -1.575,-1.474 0,-0.819 0.565,-1.474 1.575,-1.474 C -0.565,-1.474 0,-0.819 0,0 m 0.966,0 c 0,-1.264 -0.928,-2.287 -2.542,-2.287 -1.613,0 -2.54,1.023 -2.54,2.287 0,1.264 0.927,2.287 2.54,2.287 1.614,0 2.542,-1.023 2.542,-2.287"></path></g><g transform="translate(220.9072,78.0569)" id="g160"><path id="path162" style="fill:#0b3845;fill-opacity:1;fill-rule:nonzero;stroke:none" d="m 0,0 h 1.277 c 0.527,0 0.959,0.267 0.959,0.648 0,0.426 -0.292,0.673 -0.781,0.673 L 0,1.321 Z m -0.965,-2.351 v 4.473 h 2.426 c 1.258,0 1.741,-0.597 1.741,-1.36 0,-0.521 -0.305,-1.023 -0.991,-1.162 -0.032,-0.007 -0.07,-0.026 -0.07,-0.083 0,-0.051 0.025,-0.076 0.07,-0.082 0.559,-0.064 0.667,-0.324 0.762,-0.591 L 3.405,-2.351 H 2.3 L 2.058,-1.493 C 1.925,-1.016 1.804,-0.775 1.093,-0.775 H 0 v -1.576 z"></path></g><g transform="translate(228.4312,79.3656)" id="g164"><path id="path166" style="fill:#0b3845;fill-opacity:1;fill-rule:nonzero;stroke:none" d="m 0,0 h -2.693 v -1.042 h 2.286 V -1.804 H -2.693 V -2.846 H 0 v -0.813 h -3.659 v 4.472 l 3.659,0 z"></path></g><g transform="translate(233.1093,77.0405)" id="g168"><path id="path170" style="fill:#0b3845;fill-opacity:1;fill-rule:nonzero;stroke:none" d="m 0,0 c 0,-0.737 -0.743,-1.385 -2.135,-1.385 -1.454,0 -2.134,0.8 -2.134,1.626 h 0.94 c 0.013,-0.343 0.21,-0.864 1.194,-0.864 0.902,0 1.169,0.35 1.169,0.572 0,0.305 -0.235,0.502 -1.169,0.604 -1.48,0.165 -1.956,0.578 -1.956,1.365 0,0.699 0.737,1.271 1.969,1.271 1.36,0 1.912,-0.699 1.931,-1.423 h -0.921 c 0,0.292 -0.235,0.661 -1.023,0.661 -0.787,0 -0.984,-0.292 -0.984,-0.47 0,-0.172 0.095,-0.439 1.048,-0.528 C -0.839,1.309 0,1.042 0,0"></path>
</g>
</g></svg>