<?xml version="1.0"?>
<svg xmlns="http://www.w3.org/2000/svg" viewBox="96 -106 32 32" width="128" height="128">
<g transform="scale(1,-1)">
<g transform="translate(125.1628,79.6224)" id="g30"><path id="path32" style="fill:#f4f3f2;fill-opacity:1;fill-rule:nonzero;stroke:none" d="m 0,0 c -1.696,-4.455 -6.011,-7.628 -11.054,-7.628 -6.518,0 -11.824,5.303 -11.824,11.823 v 1.907 h -0.378 c -0.131,0 -0.259,0.009 -0.384,0.031 V 4.195 c 0,-6.941 5.647,-12.586 12.586,-12.586 5.47,0 10.136,3.506 11.863,8.391 z m 1.15,22.884 h -8.043 c 0.08,-0.171 0.15,-0.348 0.208,-0.531 0.024,-0.076 0.046,-0.156 0.064,-0.232 h 7.39 V 5.34 h 0.384 c 0.129,0 0.257,-0.01 0.379,-0.028 v 17.19 c 0,0.211 -0.168,0.382 -0.382,0.382 m -24.409,0 c -0.21,0 -0.381,-0.171 -0.381,-0.382 V 11.414 c 0.122,0.019 0.253,0.028 0.384,0.028 h 0.378 v 10.679 h 7.393 c 0.019,0.076 0.04,0.152 0.064,0.229 0.062,0.186 0.129,0.363 0.211,0.534 z"></path></g>
<g transform="translate(114.1116,84.5806)" id="g34"><path id="path36" style="fill:#f4f3f2;fill-opacity:1;fill-rule:nonzero;stroke:none" d="m 0,0 c -1.26,0 -2.288,1.025 -2.288,2.288 0,1.26 1.028,2.289 2.288,2.289 1.263,0 2.288,-1.029 2.288,-2.289 C 2.288,1.025 1.263,0 0,0 m 0,5.34 c -1.684,0 -3.051,-1.367 -3.051,-3.052 0,-1.684 1.367,-3.051 3.051,-3.051 1.684,0 3.051,1.367 3.051,3.051 C 3.051,3.973 1.684,5.34 0,5.34"></path></g>
<g transform="translate(114.1116,97.548)" id="g38"><path id="path40" style="fill:#f4f3f2;fill-opacity:1;fill-rule:nonzero;stroke:none" d="m 0,0 c -1.684,0 -3.051,1.367 -3.051,3.051 0,0.406 0.079,0.791 0.223,1.144 0.113,0.278 0.262,0.534 0.448,0.763 0.558,0.699 1.419,1.144 2.38,1.144 0.961,0 1.821,-0.445 2.38,-1.144 C 2.566,4.729 2.715,4.473 2.828,4.195 2.972,3.842 3.051,3.457 3.051,3.051 3.051,1.367 1.684,0 0,0 M 3.64,4.195 C 3.555,4.464 3.442,4.72 3.301,4.958 2.642,6.096 1.41,6.865 0,6.865 -1.41,6.865 -2.642,6.096 -3.301,4.958 -3.442,4.72 -3.555,4.464 -3.64,4.195 -3.753,3.835 -3.814,3.451 -3.814,3.051 c 0,-2.102 1.712,-3.814 3.814,-3.814 2.102,0 3.814,1.712 3.814,3.814 0,0.4 -0.061,0.784 -0.174,1.144"></path></g>
<g transform="translate(126.4077,81.1541)" id="g42"><path id="path44" style="fill:#f4f3f2;fill-opacity:1;fill-rule:nonzero;stroke:none" d="m 0,0 c -0.03,-0.006 -0.061,-0.006 -0.091,-0.006 h -3.573 c -0.162,0 -0.305,-0.101 -0.36,-0.253 -1.233,-3.5 -4.559,-5.849 -8.272,-5.849 -4.58,0 -8.336,3.435 -8.739,7.991 -0.009,0.1 0.025,0.198 0.095,0.274 0.073,0.08 0.177,0.125 0.287,0.125 h 2.255 c 3.154,0 5.72,-2.566 5.72,-5.721 0,-0.21 0.171,-0.381 0.382,-0.381 0.101,0 0.198,0.04 0.268,0.113 0.074,0.07 0.113,0.168 0.113,0.268 0,1.529 0.595,2.966 1.675,4.046 1.08,1.08 2.517,1.675 4.046,1.675 h 6.103 C 0.04,2.282 0.165,2.261 0.281,2.218 0.729,2.066 1.053,1.639 1.053,1.138 1.053,0.537 0.589,0.046 0,0 m 0.287,3.005 c -0.122,0.028 -0.25,0.04 -0.378,0.04 h -6.103 c -1.733,0 -3.359,-0.674 -4.586,-1.898 -0.686,-0.686 -1.199,-1.501 -1.519,-2.389 -0.9,2.496 -3.295,4.287 -6.099,4.287 h -2.255 c -0.324,0 -0.632,-0.137 -0.848,-0.372 -0.214,-0.235 -0.321,-0.546 -0.293,-0.857 0.436,-4.953 4.518,-8.687 9.498,-8.687 3.945,0 7.487,2.441 8.897,6.102 h 3.308 c 1.049,0 1.907,0.858 1.907,1.907 0,0.925 -0.66,1.694 -1.529,1.867"></path></g>
<g transform="translate(122.4718,87.6714)" id="g46"><path id="path48" style="fill:#f4f3f2;fill-opacity:1;fill-rule:nonzero;stroke:none" d="m 0,0 c -0.22,-0.268 -0.543,-0.421 -0.888,-0.421 -0.54,0 -1.01,0.385 -1.117,0.915 -0.61,3.006 -3.283,5.187 -6.355,5.187 -3.302,0 -6.069,-2.468 -6.441,-5.745 -0.025,-0.207 -0.183,-0.357 -0.382,-0.357 h -5.382 c -0.134,0 -0.265,0.024 -0.384,0.067 -0.443,0.156 -0.76,0.58 -0.76,1.077 0,0.497 0.317,0.922 0.76,1.077 0.119,0.043 0.25,0.067 0.384,0.067 h 3.311 c 0.314,0 0.595,0.193 0.711,0.492 1.293,3.356 4.583,5.611 8.183,5.611 4.156,0 7.771,-2.951 8.595,-7.015 C 0.305,0.616 0.22,0.269 0,0 m 0.983,1.105 c -0.898,4.421 -4.827,7.627 -9.343,7.627 -3.915,0 -7.488,-2.45 -8.894,-6.102 h -3.311 c -0.131,0 -0.259,-0.012 -0.384,-0.04 -0.87,-0.176 -1.523,-0.948 -1.523,-1.867 0,-0.921 0.653,-1.69 1.523,-1.867 0.125,-0.028 0.253,-0.04 0.384,-0.04 h 5.382 c 0.583,0 1.071,0.446 1.139,1.035 0.329,2.889 2.773,5.068 5.684,5.068 2.709,0 5.068,-1.926 5.608,-4.577 0.177,-0.885 0.964,-1.526 1.864,-1.526 0.577,0 1.114,0.257 1.48,0.702 0.363,0.446 0.506,1.025 0.391,1.587"></path></g>
</g>
</svg>